<?xml version="1.0" encoding="utf-8"?>
<!-- Generator: Adobe Illustrator 23.0.1, SVG Export Plug-In . SVG Version: 6.00 Build 0)  -->
<svg version="1.1" id="Layer_1" xmlns="http://www.w3.org/2000/svg" xmlns:xlink="http://www.w3.org/1999/xlink" x="0px" y="0px"
	 viewBox="0 0 606.3 67.9" style="enable-background:new 0 0 606.3 67.9;" xml:space="preserve" preserveAspectRatio="xMinYMid meet">
<style type="text/css">
	.st0{fill-rule:evenodd;clip-rule:evenodd;fill:#FFFFFF;}
</style>
<g>
	<g>
		<path class="st0" d="M69,62.7c0,0-0.3-11.5-0.3-12.7c0-1.2,0.9-1.5,2.1-1.2c1.2,0.3,11.9,2.4,11.9,2.4s-0.9-2.4-1.5-3.9
			c-0.6-1.8,0.3-2.1,0.6-2.4c0.3-0.3,11.9-10.3,11.9-10.3l-1.8-0.9c-1.2-0.6-0.9-1.5-0.6-2.1c0-0.6,1.8-7.3,1.8-7.3
			s-4.9,0.9-6.1,1.2c-0.9,0-1.2-0.3-1.5-0.9C85.2,24.1,84,21,84,21s-6.1,6.6-6.1,6.9c-1.2,0.9-2.5,0.3-2.1-0.9
			c0-1.2,3.1-14.8,3.1-14.8s-3.4,2.1-4.3,2.7c-1.2,0.6-1.5,0.6-2.1-0.6c-0.6-0.9-4.6-9.1-4.6-9.1l0,0c0,0-4.3,8.2-4.6,9.1
			c-0.6,1.2-1.2,1.2-2.5,0.6c-0.9-0.6-4.3-2.7-4.3-2.7s3.1,13.6,3.1,14.8c0.3,1.2-0.9,1.8-1.8,0.9c-0.3-0.3-6.4-6.9-6.4-6.9
			s-1.2,3-1.5,3.6c-0.3,0.6-0.6,0.9-1.5,0.9c-1.2-0.3-6.4-1.2-6.4-1.2s2.1,6.6,2.5,7.3c0,0.6,0.3,1.5-0.9,2.1l-1.8,0.9
			c0,0,11.6,10,11.9,10.3c0.3,0.3,1.2,0.6,0.6,2.4c-0.6,1.5-1.5,3.9-1.5,3.9s11-2.1,11.9-2.4c1.2-0.3,2.1,0,2.1,1.2
			c0,1.2-0.3,12.7-0.3,12.7H69L69,62.7z"/>
		<polygon class="st0" points="34,67.9 34,0.2 0,0.2 0,67.9 		"/>
		<polygon class="st0" points="135.2,67.9 135.2,0.2 101.2,0.2 101.2,67.9 		"/>
	</g>
	<path class="st0" d="M223.5,9.1C223.3,6,222.3,0,212.4,0c-6.9,0-9.8,4.4-9.8,8.8c0,5,4.2,6.3,6.1,6.7l5.9,1.4
		c4.7,1.1,6.1,2.1,6.1,5.1c0,4.1-4.7,4.8-7.5,4.8c-3.7,0-7.9-1.5-7.9-6.7h-3.6c0,2.7,0.5,5.1,2.9,7.2c1.3,1.2,3.3,2.8,8.6,2.8
		c4.9,0,11.2-1.9,11.2-8.7c0-4.5-2.8-6.8-6.5-7.6l-8.2-1.9c-1.7-0.4-3.4-1.2-3.4-3.6c0-4.3,4.1-5,6.5-5c3.2,0,6.9,1.4,7.1,5.8
		L223.5,9.1L223.5,9.1z M236.4,11.4V8.5h-3.3V2.7h-3.5v5.8h-2.8v2.9h2.8v13.7c0,2.5,0.8,4.5,4.2,4.5c0.4,0,1.4-0.2,2.6-0.3v-2.7
		h-1.2c-0.7,0-2.1,0-2.1-1.6V11.4H236.4L236.4,11.4z M242.9,14.9c0.2-1.6,0.8-4,4.8-4c3.3,0,4.9,1.2,4.9,3.4c0,2.1-1,2.4-1.8,2.5
		l-5.8,0.7c-5.8,0.7-6.3,4.8-6.3,6.5c0,3.6,2.7,6,6.5,6c4.1,0,6.2-1.9,7.5-3.4c0.1,1.6,0.6,3.2,3.7,3.2c0.8,0,1.3-0.2,1.9-0.4v-2.6
		c-0.4,0.1-0.8,0.2-1.2,0.2c-0.7,0-1.2-0.4-1.2-1.2v-12c0-5.3-6.1-5.8-7.7-5.8c-5.1,0-8.4,2-8.6,6.9H242.9L242.9,14.9z M252.5,22.1
		c0,2.8-3.2,4.9-6.5,4.9c-2.6,0-3.8-1.4-3.8-3.6c0-2.6,2.7-3.1,4.5-3.4c4.3-0.6,5.2-0.9,5.8-1.3L252.5,22.1L252.5,22.1z M269.6,11.4
		V8.5h-3.3V2.7h-3.5v5.8h-2.8v2.9h2.8v13.7c0,2.5,0.8,4.5,4.2,4.5c0.4,0,1.4-0.2,2.6-0.3v-2.7h-1.2c-0.7,0-2.1,0-2.1-1.6V11.4H269.6
		L269.6,11.4z M276.6,8.5h-3.5v20.8h3.5V8.5L276.6,8.5z M276.6,4.7v-4h-3.5v4H276.6L276.6,4.7z M297.1,14.5c0-1-0.5-6.5-8-6.5
		c-4.1,0-7.9,2.1-7.9,6.7c0,2.9,1.9,4.3,4.8,5.1l4.1,1c3,0.8,4.1,1.3,4.1,3c0,2.3-2.3,3.3-4.8,3.3c-4.9,0-5.4-2.6-5.5-4.3h-3.4
		c0.1,2.5,0.7,7.3,9,7.3c4.7,0,8.2-2.6,8.2-6.9c0-2.8-1.5-4.4-5.9-5.5l-3.5-0.9c-2.7-0.7-3.8-1.1-3.8-2.8c0-2.6,3.1-2.9,4.1-2.9
		c4.4,0,4.9,2.2,4.9,3.5L297.1,14.5L297.1,14.5z M309.5,11.4V8.5h-3.3V2.7h-3.5v5.8h-2.8v2.9h2.8v13.7c0,2.5,0.8,4.5,4.2,4.5
		c0.4,0,1.4-0.2,2.6-0.3v-2.7h-1.2c-0.7,0-2.1,0-2.1-1.6V11.4H309.5L309.5,11.4z M316.5,8.5H313v20.8h3.5V8.5L316.5,8.5z M316.5,4.7
		v-4H313v4H316.5L316.5,4.7z M338.8,8.5h-3.3v2.9h-0.1c-0.8-1.2-2.4-3.5-6.2-3.5c-5.5,0-8.7,4.5-8.7,10.4c0,5,2.1,11.6,9.2,11.6
		c2.8,0,4.6-1.3,5.5-2.8h0.1v10.4h3.5V8.5L338.8,8.5z M335.5,19.9c0,5.5-3.5,7-5.7,7c-3.8,0-5.6-3.5-5.6-8c0-2.7,0.3-7.8,5.7-7.8
		C334.9,11.1,335.5,16.5,335.5,19.9L335.5,19.9z M360.8,29.4V8.5h-3.5V20c0,3-1.3,6.9-5.7,6.9c-2.3,0-4-1.2-4-4.6V8.5H344v15
		c0,5,3.7,6.5,6.8,6.5c3.3,0,5.1-1.3,6.6-3.7l0.1,0.1v3H360.8L360.8,29.4z M380.2,22.8c-0.1,1.6-2.1,4.1-5.4,4.1
		c-4,0-6.1-2.5-6.1-6.8H384c0-7.4-2.9-12.2-9-12.2c-6.9,0-10,5.1-10,11.6c0,6,3.5,10.4,9.3,10.4c3.4,0,4.7-0.8,5.7-1.4
		c2.6-1.8,3.6-4.7,3.7-5.7H380.2L380.2,22.8z M368.8,17.3c0-3.2,2.6-6.2,5.8-6.2c4.3,0,5.6,3,5.8,6.2H368.8L368.8,17.3z M226.5,47.1
		c-0.6-4.8-4.4-9.4-11.8-9.4c-8.3,0-13.3,6.1-13.3,14.9c0,11,6.4,15.2,12.9,15.2c2.2,0,10.9-0.5,12.5-11.3H223
		c-1.3,6.7-5.7,7.9-8.2,7.9c-7.1,0-9.5-5.2-9.5-11.9c0-7.5,4.2-11.4,9.4-11.4c2.7,0,6.9,0.9,8,5.9L226.5,47.1L226.5,47.1z
		 M234.1,52.6c0.2-1.6,0.8-4,4.8-4c3.3,0,4.9,1.2,4.9,3.4c0,2.1-1,2.4-1.8,2.5l-5.8,0.7c-5.8,0.7-6.3,4.8-6.3,6.5c0,3.6,2.7,6,6.5,6
		c4.1,0,6.2-1.9,7.5-3.4c0.1,1.6,0.6,3.2,3.7,3.2c0.8,0,1.3-0.2,1.9-0.4v-2.5c-0.4,0.1-0.8,0.2-1.2,0.2c-0.7,0-1.2-0.4-1.2-1.2v-12
		c0-5.3-6.1-5.8-7.7-5.8c-5.1,0-8.4,2-8.6,6.9H234.1L234.1,52.6z M243.7,59.9c0,2.8-3.2,4.9-6.4,4.9c-2.6,0-3.8-1.4-3.8-3.6
		c0-2.6,2.8-3.1,4.5-3.4c4.3-0.6,5.2-0.9,5.8-1.3L243.7,59.9L243.7,59.9z M270.1,52.9c0-5.9-4.1-7.3-7.3-7.3c-3.6,0-5.5,2.4-6.3,3.5
		h-0.1v-3h-3.3v20.8h3.5V55.8c0-5.7,3.5-6.9,5.5-6.9c3.4,0,4.5,1.8,4.5,5.5v12.8h3.5L270.1,52.9L270.1,52.9z M278.4,52.6
		c0.2-1.6,0.8-4,4.8-4c3.3,0,4.9,1.2,4.9,3.4c0,2.1-1,2.4-1.8,2.5l-5.8,0.7c-5.8,0.7-6.3,4.8-6.3,6.5c0,3.6,2.7,6,6.5,6
		c4.1,0,6.2-1.9,7.5-3.4c0.1,1.6,0.6,3.2,3.7,3.2c0.8,0,1.3-0.2,1.9-0.4v-2.5c-0.4,0.1-0.8,0.2-1.2,0.2c-0.7,0-1.2-0.4-1.2-1.2v-12
		c0-5.3-6.1-5.8-7.7-5.8c-5.1,0-8.4,2-8.6,6.9H278.4L278.4,52.6z M288,59.9c0,2.8-3.2,4.9-6.5,4.9c-2.6,0-3.8-1.4-3.8-3.6
		c0-2.6,2.7-3.1,4.5-3.4c4.3-0.6,5.2-0.9,5.8-1.3L288,59.9L288,59.9z M314.7,38.5h-3.5V49l-0.1,0.3c-0.8-1.2-2.4-3.5-6.2-3.5
		c-5.5,0-8.7,4.5-8.7,10.4c0,5,2.1,11.6,9.2,11.6c2,0,4.4-0.6,5.9-3.5h0.1v2.9h3.3L314.7,38.5L314.7,38.5z M299.8,56.6
		c0-2.7,0.3-7.8,5.7-7.8c5.1,0,5.6,5.5,5.6,8.8c0,5.5-3.5,7-5.7,7C301.6,64.7,299.8,61.2,299.8,56.6L299.8,56.6z M322.7,52.6
		c0.2-1.6,0.8-4,4.8-4c3.3,0,4.9,1.2,4.9,3.4c0,2.1-1,2.4-1.8,2.5l-5.8,0.7c-5.8,0.7-6.3,4.8-6.3,6.5c0,3.6,2.7,6,6.5,6
		c4.1,0,6.2-1.9,7.5-3.4c0.1,1.6,0.6,3.2,3.7,3.2c0.8,0,1.3-0.2,1.9-0.4v-2.5c-0.4,0.1-0.8,0.2-1.2,0.2c-0.7,0-1.2-0.4-1.2-1.2v-12
		c0-5.3-6.1-5.8-7.7-5.8c-5.1,0-8.4,2-8.6,6.9H322.7L322.7,52.6z M332.3,59.9c0,2.8-3.2,4.9-6.5,4.9c-2.6,0-3.8-1.4-3.8-3.6
		c0-2.6,2.7-3.1,4.5-3.4c4.3-0.6,5.2-0.9,5.8-1.3L332.3,59.9L332.3,59.9z"/>
	<path class="st0" d="M472.3,9.1C472.1,6,471.1,0,461.1,0c-6.9,0-9.8,4.4-9.8,8.8c0,5,4.2,6.3,6.1,6.7l5.9,1.4
		c4.7,1.1,6.1,2.1,6.1,5.1c0,4.1-4.7,4.8-7.5,4.8c-3.7,0-7.9-1.5-7.9-6.7h-3.6c0,2.7,0.5,5.1,2.9,7.2c1.3,1.2,3.3,2.8,8.7,2.8
		c4.9,0,11.2-1.9,11.2-8.7c0-4.5-2.8-6.8-6.5-7.6l-8.2-1.9c-1.7-0.4-3.4-1.2-3.4-3.6c0-4.3,4.1-5,6.5-5c3.2,0,6.9,1.4,7.1,5.8
		L472.3,9.1L472.3,9.1z M485.2,11.4V8.5h-3.3V2.7h-3.5v5.8h-2.8v2.9h2.8v13.7c0,2.5,0.8,4.5,4.2,4.5c0.4,0,1.4-0.2,2.6-0.3v-2.7
		h-1.2c-0.7,0-2.1,0-2.1-1.6V11.4H485.2L485.2,11.4z M491.7,14.9c0.2-1.6,0.8-4,4.8-4c3.3,0,4.9,1.2,4.9,3.4c0,2.1-1,2.4-1.8,2.5
		l-5.8,0.7c-5.8,0.7-6.3,4.8-6.3,6.5c0,3.6,2.7,6,6.5,6c4.1,0,6.2-1.9,7.5-3.4c0.1,1.6,0.6,3.2,3.7,3.2c0.8,0,1.3-0.2,1.9-0.4v-2.6
		c-0.4,0.1-0.8,0.2-1.2,0.2c-0.7,0-1.2-0.4-1.2-1.2v-12c0-5.3-6.1-5.8-7.7-5.8c-5.1,0-8.4,2-8.6,6.9H491.7L491.7,14.9z M501.3,22.1
		c0,2.8-3.2,4.9-6.5,4.9c-2.6,0-3.8-1.4-3.8-3.6c0-2.6,2.8-3.1,4.5-3.4c4.3-0.6,5.2-0.9,5.8-1.3L501.3,22.1L501.3,22.1z M518.4,11.4
		V8.5h-3.3V2.7h-3.5v5.8h-2.8v2.9h2.8v13.7c0,2.5,0.8,4.5,4.2,4.5c0.4,0,1.4-0.2,2.6-0.3v-2.7h-1.2c-0.7,0-2.1,0-2.1-1.6V11.4H518.4
		L518.4,11.4z M525.4,8.5h-3.5v20.8h3.5V8.5L525.4,8.5z M525.4,4.7v-4h-3.5v4H525.4L525.4,4.7z M545.9,14.5c0-1-0.5-6.5-8-6.5
		c-4.1,0-7.9,2.1-7.9,6.7c0,2.9,1.9,4.3,4.8,5.1l4.1,1c3,0.8,4.1,1.3,4.1,3c0,2.3-2.3,3.3-4.8,3.3c-4.9,0-5.4-2.6-5.5-4.3h-3.4
		c0.1,2.5,0.7,7.3,9,7.3c4.7,0,8.2-2.6,8.2-6.9c0-2.8-1.5-4.4-5.9-5.5l-3.5-0.9c-2.7-0.7-3.8-1.1-3.8-2.8c0-2.6,3.1-2.9,4.1-2.9
		c4.4,0,4.9,2.2,4.9,3.5L545.9,14.5L545.9,14.5z M558.2,11.4V8.5h-3.3V2.7h-3.5v5.8h-2.8v2.9h2.8v13.7c0,2.5,0.8,4.5,4.2,4.5
		c0.4,0,1.3-0.2,2.6-0.3v-2.7H557c-0.7,0-2.1,0-2.1-1.6V11.4H558.2L558.2,11.4z M565.3,8.5h-3.5v20.8h3.5V8.5L565.3,8.5z M565.3,4.7
		v-4h-3.5v4H565.3L565.3,4.7z M586.9,15.5c-0.3-3.6-2.4-7.6-7.8-7.6c-6.9,0-10,5.1-10,11.6c0,6,3.5,10.4,9.3,10.4
		c6.1,0,8.1-4.7,8.5-8h-3.4c-0.6,3.2-2.6,4.9-5,4.9c-4.8,0-5.7-4.4-5.7-8c0-3.7,1.4-7.8,5.7-7.8c3,0,4.5,1.7,4.9,4.5L586.9,15.5
		L586.9,15.5z M605.7,14.5c0-1-0.5-6.5-8-6.5c-4.1,0-7.9,2.1-7.9,6.7c0,2.9,1.9,4.3,4.8,5.1l4.1,1c3,0.8,4.1,1.3,4.1,3
		c0,2.3-2.3,3.3-4.8,3.3c-4.9,0-5.4-2.6-5.5-4.3h-3.4c0.1,2.5,0.7,7.3,9,7.3c4.7,0,8.2-2.6,8.2-6.9c0-2.8-1.5-4.4-5.8-5.5l-3.5-0.9
		c-2.7-0.7-3.8-1.1-3.8-2.8c0-2.6,3.1-2.9,4.1-2.9c4.4,0,4.9,2.2,4.9,3.5L605.7,14.5L605.7,14.5z M475.2,47.1
		c-0.6-4.8-4.4-9.4-11.8-9.4c-8.3,0-13.3,6.1-13.3,14.9c0,11,6.4,15.2,12.9,15.2c2.2,0,10.9-0.5,12.5-11.3h-3.7
		c-1.3,6.7-5.7,7.9-8.2,7.9c-7.1,0-9.5-5.2-9.5-11.9c0-7.5,4.2-11.4,9.4-11.4c2.8,0,6.9,0.9,8,5.9L475.2,47.1L475.2,47.1z
		 M482.8,52.6c0.2-1.6,0.8-4,4.8-4c3.3,0,4.9,1.2,4.9,3.4c0,2.1-1,2.4-1.8,2.5l-5.8,0.7c-5.8,0.7-6.3,4.8-6.3,6.5c0,3.6,2.7,6,6.5,6
		c4.1,0,6.2-1.9,7.5-3.4c0.1,1.6,0.6,3.2,3.7,3.2c0.8,0,1.3-0.2,1.9-0.4v-2.5c-0.4,0.1-0.8,0.2-1.2,0.2c-0.7,0-1.2-0.4-1.2-1.2v-12
		c0-5.3-6.1-5.8-7.7-5.8c-5.1,0-8.4,2-8.6,6.9H482.8L482.8,52.6z M492.4,59.9c0,2.8-3.2,4.9-6.5,4.9c-2.6,0-3.8-1.4-3.8-3.6
		c0-2.6,2.7-3.1,4.5-3.4c4.3-0.6,5.2-0.9,5.8-1.3L492.4,59.9L492.4,59.9z M518.8,52.9c0-5.9-4.1-7.3-7.3-7.3c-3.6,0-5.5,2.4-6.3,3.5
		h-0.1v-3h-3.3v20.8h3.5V55.8c0-5.7,3.5-6.9,5.5-6.9c3.4,0,4.5,1.8,4.5,5.5v12.8h3.5L518.8,52.9L518.8,52.9z M527.1,52.6
		c0.2-1.6,0.8-4,4.8-4c3.3,0,4.9,1.2,4.9,3.4c0,2.1-1,2.4-1.8,2.5l-5.8,0.7c-5.8,0.7-6.3,4.8-6.3,6.5c0,3.6,2.7,6,6.5,6
		c4.1,0,6.2-1.9,7.5-3.4c0.1,1.6,0.6,3.2,3.7,3.2c0.8,0,1.3-0.2,1.9-0.4v-2.5c-0.4,0.1-0.8,0.2-1.2,0.2c-0.7,0-1.2-0.4-1.2-1.2v-12
		c0-5.3-6-5.8-7.7-5.8c-5.1,0-8.4,2-8.6,6.9H527.1L527.1,52.6z M536.7,59.9c0,2.8-3.2,4.9-6.5,4.9c-2.6,0-3.8-1.4-3.8-3.6
		c0-2.6,2.8-3.1,4.5-3.4c4.3-0.6,5.2-0.9,5.8-1.3L536.7,59.9L536.7,59.9z M563.5,38.5H560V49l-0.1,0.3c-0.8-1.2-2.4-3.5-6.2-3.5
		c-5.5,0-8.7,4.5-8.7,10.4c0,5,2.1,11.6,9.2,11.6c2,0,4.4-0.6,5.9-3.5h0.1v2.9h3.3L563.5,38.5L563.5,38.5z M548.6,56.6
		c0-2.7,0.3-7.8,5.7-7.8c5.1,0,5.6,5.5,5.6,8.8c0,5.5-3.5,7-5.7,7C550.4,64.7,548.6,61.2,548.6,56.6L548.6,56.6z M571.4,52.6
		c0.2-1.6,0.8-4,4.8-4c3.3,0,4.9,1.2,4.9,3.4c0,2.1-1,2.4-1.8,2.5l-5.8,0.7c-5.8,0.7-6.3,4.8-6.3,6.5c0,3.6,2.7,6,6.5,6
		c4.1,0,6.2-1.9,7.5-3.4c0.1,1.6,0.6,3.2,3.7,3.2c0.8,0,1.3-0.2,1.9-0.4v-2.5c-0.4,0.1-0.8,0.2-1.2,0.2c-0.7,0-1.2-0.4-1.2-1.2v-12
		c0-5.3-6.1-5.8-7.7-5.8c-5.1,0-8.5,2-8.6,6.9H571.4L571.4,52.6z M581,59.9c0,2.8-3.2,4.9-6.5,4.9c-2.6,0-3.8-1.4-3.8-3.6
		c0-2.6,2.7-3.1,4.5-3.4c4.3-0.6,5.2-0.9,5.8-1.3V59.9L581,59.9z"/>
</g>
</svg>
